# Blender v2.93.5 OBJ File: 'untitled.blend'
# www.blender.org
mtllib lampada.mtl
o Cube
v -0.592062 14.659212 -0.592062
v 1.000000 4.159762 -1.000000
v 0.592062 14.659212 -0.592062
v 1.000000 4.159762 1.000000
v -0.592062 14.659212 0.592062
v -1.000000 4.159762 -1.000000
v 0.592062 14.659212 0.592062
v -1.000000 4.159762 1.000000
v -1.000000 3.682782 -1.000000
v -1.000000 3.682782 1.000000
v 1.000000 3.682782 -1.000000
v 1.000000 3.682782 1.000000
v -1.000000 2.737241 -1.000000
v -1.000000 2.737241 1.000000
v 1.000000 2.737241 -1.000000
v 1.000000 2.737241 1.000000
v -1.000000 3.210011 1.000000
v 1.000000 3.210011 1.000000
v -1.000000 3.210011 -1.000000
v 1.000000 3.210011 -1.000000
v -1.000000 2.737241 2.694146
v 1.000000 2.737241 2.694146
v -1.000000 3.210011 2.694146
v 1.000000 3.210011 2.694146
v 1.000000 2.737241 -2.724060
v -1.000000 2.737241 -2.724060
v -1.000000 3.210011 -2.724060
v 1.000000 3.210011 -2.724060
v -2.865005 2.737241 -1.000000
v -2.865005 2.737241 1.000000
v -2.865005 3.210011 1.000000
v -2.865005 3.210011 -1.000000
v 2.668325 2.737241 1.000000
v 2.668325 2.737241 -1.000000
v 2.668325 3.210011 1.000000
v 2.668325 3.210011 -1.000000
v -1.000000 1.935451 -1.000000
v -1.000000 1.935451 1.000000
v 1.000000 1.935451 -1.000000
v 1.000000 1.935451 1.000000
v -1.000000 -0.070987 5.311339
v 1.000000 -0.070987 5.311339
v 1.000000 -0.228678 -6.393649
v -1.000000 -0.228678 -6.393649
v -4.626272 -0.002380 -1.000000
v -4.626272 -0.002380 1.000000
v 4.346905 -0.128236 1.000000
v 4.346905 -0.128236 -1.000000
v 0.592062 14.143114 -0.592062
v 1.000000 13.735176 -1.000000
v 0.592062 14.143114 0.592062
v 1.000000 13.735176 1.000000
v -0.592062 14.143114 -0.592062
v -1.000000 13.735176 -1.000000
v -0.592062 14.143114 0.592062
v -1.000000 13.735176 1.000000
v 2.650218 23.365374 0.592062
v 1.466094 23.365374 0.592062
v 1.466094 23.365374 -0.592062
v 2.650218 23.365374 -0.592062
v 12.260183 30.933315 -0.437258
v 11.385666 30.912685 -0.437258
v 11.385666 30.912685 0.437258
v 12.260183 30.933315 0.437258
v 2.650218 23.837963 0.592062
v 2.495414 23.992767 0.437258
v 1.620898 23.992767 0.437258
v 1.466094 23.837963 0.592062
v 1.620898 23.992767 -0.437258
v 1.466094 23.837963 -0.592062
v 2.495414 23.992767 -0.437258
v 2.650218 23.837963 -0.592062
v 10.634531 30.380384 0.437258
v 9.883394 29.848083 0.437258
v 9.132258 29.315783 0.437258
v 8.381123 28.783482 0.437258
v 7.629986 28.251181 0.437258
v 6.878850 27.718880 0.437258
v 6.127714 27.186579 0.437258
v 5.376578 26.654276 0.437258
v 4.625442 26.121975 0.437258
v 3.874306 25.589674 0.437258
v 3.123170 25.057371 0.437258
v 2.372034 24.525068 0.437258
v 2.372034 24.525068 -0.437258
v 3.123170 25.057369 -0.437258
v 3.874306 25.589670 -0.437258
v 4.625442 26.121971 -0.437258
v 5.376578 26.654272 -0.437258
v 6.127714 27.186573 -0.437258
v 6.878850 27.718874 -0.437258
v 7.629986 28.251177 -0.437258
v 8.381123 28.783478 -0.437258
v 9.132258 29.315779 -0.437258
v 9.883394 29.848082 -0.437258
v 10.634531 30.380384 -0.437258
v 3.246550 24.525068 0.437258
v 3.997686 25.057369 0.437258
v 4.748822 25.589670 0.437258
v 5.499958 26.121971 0.437258
v 6.251094 26.654272 0.437258
v 7.002230 27.186573 0.437258
v 7.753366 27.718874 0.437258
v 8.504502 28.251177 0.437258
v 9.255638 28.783478 0.437258
v 10.006772 29.315779 0.437258
v 10.757908 29.848085 0.437258
v 11.509047 29.848085 0.437258
v 11.509047 29.848085 -0.437258
v 10.757908 29.848083 -0.437258
v 10.006772 29.315783 -0.437258
v 9.255638 28.783482 -0.437258
v 8.504502 28.251181 -0.437258
v 7.753366 27.718880 -0.437258
v 7.002231 27.186579 -0.437258
v 6.251094 26.654276 -0.437258
v 5.499958 26.121975 -0.437258
v 4.748822 25.589674 -0.437258
v 3.997686 25.057371 -0.437258
v 3.246550 24.525068 -0.437258
v 10.757909 29.512232 0.437259
v 11.509048 29.512232 0.437259
v 11.509048 29.512232 -0.437258
v 10.757909 29.512230 -0.437258
v 9.981096 28.551880 1.700846
v 12.285864 28.551880 1.700846
v 12.285864 28.551880 -1.700843
v 9.981096 28.551878 -1.700843
v 8.869883 27.605679 1.700846
v 13.397078 27.605679 1.700846
v 13.397078 27.605679 -1.700843
v 8.869883 27.605675 -1.700843
v 6.152047 26.163441 4.054235
v 16.114914 26.163441 4.054235
v 16.114914 26.163441 -4.054230
v 6.152047 26.163435 -4.054230
v 4.660035 23.995760 4.054236
v 17.606928 23.995760 4.054236
v 17.606928 23.995760 -4.054229
v 4.660035 23.995756 -4.054229
vt 0.375000 0.750000
vt 0.617524 0.750000
vt 0.617524 1.000000
vt 0.375000 1.000000
vt 0.375000 0.000000
vt 0.617524 0.000000
vt 0.617524 0.250000
vt 0.375000 0.250000
vt 0.675992 0.550992
vt 0.824008 0.550992
vt 0.824008 0.550992
vt 0.675992 0.550992
vt 0.375000 0.500000
vt 0.375000 0.500000
vt 0.375000 0.250000
vt 0.824008 0.550992
vt 0.824008 0.699008
vt 0.824008 0.699008
vt 0.617524 0.500000
vt 0.375000 0.750000
vt 0.375000 0.750000
vt 0.375000 0.750000
vt 0.375000 0.750000
vt 0.375000 1.000000
vt 0.375000 0.750000
vt 0.375000 0.000000
vt 0.125000 0.500000
vt 0.375000 0.500000
vt 0.125000 0.750000
vt 0.375000 0.250000
vt 0.375000 0.250000
vt 0.375000 0.250000
vt 0.375000 0.250000
vt 0.375000 0.500000
vt 0.375000 0.500000
vt 0.375000 0.500000
vt 0.375000 0.500000
vt 0.375000 0.500000
vt 0.375000 0.250000
vt 0.375000 0.000000
vt 0.375000 1.000000
vt 0.375000 1.000000
vt 0.375000 1.000000
vt 0.375000 0.000000
vt 0.375000 0.000000
vt 0.375000 0.000000
vt 0.125000 0.750000
vt 0.125000 0.500000
vt 0.375000 0.250000
vt 0.375000 0.250000
vt 0.375000 0.000000
vt 0.375000 0.000000
vt 0.375000 0.000000
vt 0.375000 0.250000
vt 0.375000 0.000000
vt 0.375000 0.750000
vt 0.375000 0.750000
vt 0.375000 0.000000
vt 0.125000 0.750000
vt 0.125000 0.500000
vt 0.375000 0.750000
vt 0.375000 0.750000
vt 0.125000 0.750000
vt 0.375000 0.500000
vt 0.125000 0.500000
vt 0.375000 0.500000
vt 0.375000 0.500000
vt 0.375000 0.750000
vt 0.375000 0.250000
vt 0.375000 1.000000
vt 0.675992 0.699008
vt 0.875000 0.750000
vt 0.625000 0.750000
vt 0.675992 0.550992
vt 0.875000 0.500000
vt 0.625000 0.500000
vt 0.675992 0.699008
vt 0.695343 0.570343
vt 0.804657 0.570343
vt 0.804657 0.679657
vt 0.695343 0.679657
vt 0.675992 0.699008
vt 0.824008 0.699008
vt 0.675992 0.550992
vt 0.675992 0.699008
vt 0.695343 0.570343
vt 0.804657 0.570343
vt 0.824008 0.699008
vt 0.824008 0.550992
vt 0.695343 0.679657
vt 0.804657 0.679657
vt 0.804657 0.570343
vt 0.695343 0.570343
vt 0.804657 0.679657
vt 0.695343 0.679657
vt 0.804657 0.679657
vt 0.804657 0.570343
vt 0.804657 0.679657
vt 0.804657 0.570343
vt 0.804657 0.679657
vt 0.804657 0.570343
vt 0.804657 0.679657
vt 0.804657 0.570343
vt 0.804657 0.679657
vt 0.804657 0.570343
vt 0.804657 0.679657
vt 0.804657 0.570343
vt 0.804657 0.679657
vt 0.804657 0.570343
vt 0.804657 0.679657
vt 0.804657 0.570343
vt 0.804657 0.679657
vt 0.804657 0.570343
vt 0.804657 0.679657
vt 0.804657 0.570343
vt 0.804657 0.679657
vt 0.804657 0.570343
vt 0.695343 0.570343
vt 0.695343 0.679657
vt 0.695343 0.570343
vt 0.695343 0.679657
vt 0.695343 0.570343
vt 0.695343 0.679657
vt 0.695343 0.570343
vt 0.695343 0.679657
vt 0.695343 0.570343
vt 0.695343 0.679657
vt 0.695343 0.570343
vt 0.695343 0.679657
vt 0.695343 0.570343
vt 0.695343 0.679657
vt 0.695343 0.570343
vt 0.695343 0.679657
vt 0.695343 0.570343
vt 0.695343 0.679657
vt 0.695343 0.570343
vt 0.695343 0.679657
vt 0.695343 0.570343
vt 0.695343 0.679657
vt 0.695343 0.679657
vt 0.695343 0.570343
vt 0.695343 0.679657
vt 0.695343 0.570343
vt 0.695343 0.570343
vt 0.695343 0.679657
vt 0.695343 0.570343
vt 0.695343 0.679657
vt 0.695343 0.679657
vt 0.695343 0.570343
vt 0.695343 0.570343
vt 0.695343 0.679657
vt 0.695343 0.679657
vt 0.695343 0.570343
vt 0.695343 0.679657
vt 0.695343 0.570343
vt 0.695343 0.570343
vt 0.695343 0.679657
vt 0.695343 0.679657
vt 0.695343 0.570343
vn 0.0000 0.0000 1.0000
vn -1.0000 0.0000 0.0000
vn 0.0000 0.0000 -1.0000
vn 1.0000 0.0000 0.0000
vn 0.0000 -1.0000 0.0000
vn 0.0000 1.0000 0.0000
vn 0.4713 -0.8820 0.0000
vn 0.0000 -0.9066 -0.4219
vn 0.0000 -0.9281 0.3724
vn -0.5248 -0.8512 0.0000
vn 0.0000 0.6818 0.7316
vn 0.0000 0.7777 -0.6286
vn -0.8412 0.5408 0.0000
vn 0.8629 0.5055 0.0000
vn 0.0000 0.7071 0.7071
vn 0.7071 0.7071 0.0000
vn -0.7071 0.7071 0.0000
vn 0.0000 0.7071 -0.7071
vn -0.0236 0.9997 0.0000
vn 0.9732 -0.2301 0.0000
vn -0.9732 0.2301 0.0000
vn 0.8223 -0.5691 0.0000
vn -0.5782 0.8159 0.0000
vn 0.5782 -0.8159 0.0000
vn -0.7775 0.6289 0.0000
vn -0.6483 0.7614 -0.0000
vn 0.0000 0.7962 0.6051
vn 0.7775 0.6289 0.0000
vn -0.0000 0.7962 -0.6051
vn 0.4687 0.8833 0.0000
vn 0.6483 0.7614 0.0000
vn 0.8237 0.5670 0.0000
vn -0.0000 0.8526 -0.5225
vn -0.4687 0.8833 -0.0000
vn 0.0000 0.8526 0.5225
vn -0.8237 0.5670 -0.0000
usemtl Material
s off
f 4/1/1 52/2/1 56/3/1 8/4/1
f 8/5/2 56/6/2 54/7/2 6/8/2
f 3/9/3 1/10/3 59/11/3 60/12/3
f 6/8/3 2/13/3 11/14/3 9/15/3
f 53/16/2 55/17/2 5/18/2 1/10/2
f 2/13/4 50/19/4 52/2/4 4/1/4
f 16/20/4 18/21/4 24/22/4 22/23/4
f 4/1/1 8/4/1 10/24/1 12/25/1
f 8/5/2 6/8/2 9/15/2 10/26/2
f 2/13/4 4/1/4 12/25/4 11/14/4
f 13/27/5 15/28/5 16/20/5 14/29/5
f 29/30/3 13/31/3 37/32/3 45/33/3
f 15/28/3 20/34/3 36/35/3 34/36/3
f 20/34/4 15/28/4 25/37/4 28/38/4
f 9/15/3 11/14/3 20/34/3 19/39/3
f 11/14/4 12/25/4 18/21/4 20/34/4
f 10/26/2 9/15/2 19/39/2 17/40/2
f 12/25/1 10/24/1 17/41/1 18/21/1
f 24/22/1 23/42/1 21/43/1 22/23/1
f 17/40/2 14/44/2 21/45/2 23/46/2
f 18/21/6 17/41/6 23/42/6 24/22/6
f 13/27/4 14/29/4 38/47/4 37/48/4
f 27/49/3 28/38/3 25/37/3 26/50/3
f 21/45/2 14/44/2 38/51/2 41/52/2
f 19/39/6 20/34/6 28/38/6 27/49/6
f 13/31/2 19/39/2 27/49/2 26/50/2
f 31/53/2 32/54/2 29/30/2 30/55/2
f 17/40/6 19/39/6 32/54/6 31/53/6
f 19/39/3 13/31/3 29/30/3 32/54/3
f 14/44/1 17/40/1 31/53/1 30/55/1
f 36/35/4 35/56/4 33/57/4 34/36/4
f 18/21/1 16/20/1 33/57/1 35/56/1
f 14/44/1 30/55/1 46/58/1 38/51/1
f 20/34/6 18/21/6 35/56/6 36/35/6
f 37/48/7 38/47/7 46/59/7 45/60/7
f 38/47/8 40/61/8 42/62/8 41/63/8
f 39/64/9 37/48/9 44/65/9 43/66/9
f 40/61/10 39/64/10 48/67/10 47/68/10
f 13/31/2 26/50/2 44/69/2 37/32/2
f 15/28/3 34/36/3 48/67/3 39/64/3
f 15/28/1 13/27/1 37/48/1 39/64/1
f 22/23/11 21/43/11 41/70/11 42/62/11
f 33/57/1 16/20/1 40/61/1 47/68/1
f 26/50/12 25/37/12 43/66/12 44/69/12
f 14/29/3 16/20/3 40/61/3 38/47/3
f 30/55/13 29/30/13 45/33/13 46/58/13
f 34/36/14 33/57/14 47/68/14 48/67/14
f 16/20/2 15/28/2 39/64/2 40/61/2
f 25/37/4 15/28/4 39/64/4 43/66/4
f 16/20/4 22/23/4 42/62/4 40/61/4
f 51/71/15 55/17/15 56/72/15 52/73/15
f 49/74/16 51/71/16 52/2/16 50/19/16
f 55/17/17 53/16/17 54/75/17 56/72/17
f 53/16/18 49/74/18 50/76/18 54/75/18
f 6/8/3 54/7/3 50/19/3 2/13/3
f 51/71/4 49/74/4 3/9/4 7/77/4
f 55/17/1 51/71/1 7/77/1 5/18/1
f 49/74/3 53/16/3 1/10/3 3/9/3
f 61/78/19 62/79/19 63/80/19 64/81/19
f 7/77/20 3/9/20 60/12/20 57/82/20
f 1/10/21 5/18/21 58/83/21 59/11/21
f 5/18/1 7/77/1 57/82/1 58/83/1
f 57/82/4 60/12/4 72/84/4 65/85/4
f 109/86/3 96/87/3 62/79/3 61/78/3
f 59/11/2 58/83/2 68/88/2 70/89/2
f 60/12/3 59/11/3 70/89/3 72/84/3
f 66/90/15 67/91/15 68/88/15 65/85/15
f 67/91/17 69/92/17 70/89/17 68/88/17
f 69/92/18 71/93/18 72/84/18 70/89/18
f 71/93/16 66/90/16 65/85/16 72/84/16
f 58/83/1 57/82/1 65/85/1 68/88/1
f 73/94/1 108/95/1 64/81/1 63/80/1
f 108/95/22 109/86/22 61/78/22 64/81/22
f 96/87/23 73/94/23 63/80/23 62/79/23
f 69/92/23 67/91/23 84/96/23 85/97/23
f 85/97/23 84/96/23 83/98/23 86/99/23
f 86/99/23 83/98/23 82/100/23 87/101/23
f 87/101/23 82/100/23 81/102/23 88/103/23
f 88/103/23 81/102/23 80/104/23 89/105/23
f 89/105/23 80/104/23 79/106/23 90/107/23
f 90/107/23 79/106/23 78/108/23 91/109/23
f 91/109/23 78/108/23 77/110/23 92/111/23
f 92/111/23 77/110/23 76/112/23 93/113/23
f 93/113/23 76/112/23 75/114/23 94/115/23
f 94/115/23 75/114/23 74/116/23 95/117/23
f 95/117/23 74/116/23 73/94/23 96/87/23
f 66/90/24 71/93/24 120/118/24 97/119/24
f 97/119/24 120/118/24 119/120/24 98/121/24
f 98/121/24 119/120/24 118/122/24 99/123/24
f 99/123/24 118/122/24 117/124/24 100/125/24
f 100/125/24 117/124/24 116/126/24 101/127/24
f 101/127/24 116/126/24 115/128/24 102/129/24
f 102/129/24 115/128/24 114/130/24 103/131/24
f 103/131/24 114/130/24 113/132/24 104/133/24
f 104/133/24 113/132/24 112/134/24 105/135/24
f 105/135/24 112/134/24 111/136/24 106/137/24
f 106/137/24 111/136/24 110/138/24 107/139/24
f 109/86/4 108/95/4 122/140/4 123/141/4
f 67/91/1 66/90/1 97/119/1 84/96/1
f 84/96/1 97/119/1 98/121/1 83/98/1
f 83/98/1 98/121/1 99/123/1 82/100/1
f 82/100/1 99/123/1 100/125/1 81/102/1
f 81/102/1 100/125/1 101/127/1 80/104/1
f 80/104/1 101/127/1 102/129/1 79/106/1
f 79/106/1 102/129/1 103/131/1 78/108/1
f 78/108/1 103/131/1 104/133/1 77/110/1
f 77/110/1 104/133/1 105/135/1 76/112/1
f 76/112/1 105/135/1 106/137/1 75/114/1
f 75/114/1 106/137/1 107/139/1 74/116/1
f 74/116/1 107/139/1 108/95/1 73/94/1
f 71/93/3 69/92/3 85/97/3 120/118/3
f 120/118/3 85/97/3 86/99/3 119/120/3
f 119/120/3 86/99/3 87/101/3 118/122/3
f 118/122/3 87/101/3 88/103/3 117/124/3
f 117/124/3 88/103/3 89/105/3 116/126/3
f 116/126/3 89/105/3 90/107/3 115/128/3
f 115/128/3 90/107/3 91/109/3 114/130/3
f 114/130/3 91/109/3 92/111/3 113/132/3
f 113/132/3 92/111/3 93/113/3 112/134/3
f 112/134/3 93/113/3 94/115/3 111/136/3
f 111/136/3 94/115/3 95/117/3 110/138/3
f 110/138/3 95/117/3 96/87/3 109/86/3
f 121/142/25 124/143/25 128/144/25 125/145/25
f 110/138/3 109/86/3 123/141/3 124/143/3
f 107/139/2 110/138/2 124/143/2 121/142/2
f 108/95/1 107/139/1 121/142/1 122/140/1
f 125/145/26 128/144/26 132/146/26 129/147/26
f 122/140/27 121/142/27 125/145/27 126/148/27
f 123/141/28 122/140/28 126/148/28 127/149/28
f 124/143/29 123/141/29 127/149/29 128/144/29
f 131/150/30 130/151/30 134/152/30 135/153/30
f 126/148/1 125/145/1 129/147/1 130/151/1
f 127/149/31 126/148/31 130/151/31 131/150/31
f 128/144/3 127/149/3 131/150/3 132/146/3
f 135/153/32 134/152/32 138/154/32 139/155/32
f 132/146/33 131/150/33 135/153/33 136/156/33
f 129/147/34 132/146/34 136/156/34 133/157/34
f 130/151/35 129/147/35 133/157/35 134/152/35
f 137/158/5 140/159/5 139/155/5 138/154/5
f 136/156/3 135/153/3 139/155/3 140/159/3
f 133/157/36 136/156/36 140/159/36 137/158/36
f 134/152/1 133/157/1 137/158/1 138/154/1
